<svg viewBox="0 0 480 480" xmlns="http://www.w3.org/2000/svg" xmlns:xlink="http://www.w3.org/1999/xlink" id="52697c64-1268-44b5-9b5f-1e15ce470f59" overflow="hidden"><style>
.MsftOfcThm_Accent4_Fill_v2 {
 fill:#FFC000; 
}
</style>
<g><rect x="92.327" y="48.947" width="223.125" height="337.5" class="st0" fill="#D2D2D2"/><rect x="90.452" y="42.384" width="225" height="337.5" class="st1" fill="#E6E6E6"/><rect x="90.452" y="42.384" width="225" height="22.5" class="st2" fill="#737373"/><g><rect x="109.338" y="278.166" width="187.363" height="0.938" class="st0" fill="#D2D2D2"/><rect x="109.202" y="289.416" width="187.363" height="0.938" class="st0" fill="#D2D2D2"/><rect x="109.338" y="300.666" width="187.363" height="0.938" class="st0" fill="#D2D2D2"/><rect x="109.202" y="311.916" width="187.363" height="0.938" class="st0" fill="#D2D2D2"/><rect x="109.338" y="323.166" width="187.363" height="0.938" class="st0" fill="#D2D2D2"/><rect x="109.202" y="334.416" width="187.363" height="0.938" class="st0" fill="#D2D2D2"/><rect x="109.338" y="345.666" width="187.363" height="0.938" class="st0" fill="#D2D2D2"/><rect x="109.338" y="188.166" width="187.363" height="0.938" class="st0" fill="#D2D2D2"/><rect x="109.202" y="199.416" width="187.363" height="0.938" class="st0" fill="#D2D2D2"/><rect x="109.338" y="210.666" width="187.363" height="0.938" class="st0" fill="#D2D2D2"/><rect x="109.202" y="221.916" width="187.363" height="0.938" class="st0" fill="#D2D2D2"/><rect x="109.338" y="233.166" width="187.363" height="0.938" class="st0" fill="#D2D2D2"/><rect x="109.202" y="244.416" width="187.363" height="0.938" class="st0" fill="#D2D2D2"/><rect x="109.338" y="255.666" width="187.363" height="0.938" class="st0" fill="#D2D2D2"/><rect x="109.202" y="266.916" width="187.363" height="0.938" class="st0" fill="#D2D2D2"/><rect x="109.338" y="98.166" width="187.363" height="0.938" class="st0" fill="#D2D2D2"/><rect x="109.202" y="109.416" width="187.363" height="0.938" class="st0" fill="#D2D2D2"/><rect x="109.338" y="120.666" width="187.363" height="0.938" class="st0" fill="#D2D2D2"/><rect x="109.202" y="131.916" width="187.363" height="0.938" class="st0" fill="#D2D2D2"/><rect x="109.338" y="143.166" width="187.363" height="0.938" class="st0" fill="#D2D2D2"/><rect x="109.202" y="154.416" width="187.363" height="0.938" class="st0" fill="#D2D2D2"/><rect x="109.338" y="165.666" width="187.363" height="0.938" class="st0" fill="#D2D2D2"/><rect x="109.202" y="176.916" width="187.363" height="0.938" class="st0" fill="#D2D2D2"/></g><circle cx="124.202" cy="54.398" r="5.625" class="st3" fill="#505050"/><circle cx="281.702" cy="54.398" r="5.625" class="st3" fill="#505050"/></g><g><rect x="165.954" y="100.116" width="223.125" height="337.5" class="st0" fill="#D2D2D2"/><g><rect x="164.079" y="93.553" width="225" height="337.5" class="st4" fill="#FFFFFF"/><path d="M389.548 431.522 163.611 431.522 163.611 93.084 389.549 93.084 389.549 431.522ZM164.548 430.584 388.611 430.584 388.611 94.022 164.549 94.022 164.548 430.584Z" class="st5" fill="#F2F2F2"/><path d="M182.361 149.335 182.361 397.773 374.549 397.773 374.549 149.335 182.361 149.335ZM273.435 306.835 273.435 296.522 283.748 296.522 283.748 306.835 273.435 306.835ZM283.747 307.772 283.747 318.085 273.434 318.085 273.434 307.772 283.747 307.772ZM283.747 240.272 283.747 250.585 273.434 250.585 273.434 240.272 283.747 240.272ZM273.435 239.335 273.435 229.022 283.748 229.022 283.748 239.335 273.435 239.335ZM273.435 284.335 273.435 274.022 283.748 274.022 283.748 284.335 273.435 284.335ZM283.747 285.272 283.747 295.585 273.434 295.585 273.434 285.272 283.747 285.272ZM273.435 273.085 273.435 262.772 283.748 262.772 283.748 273.085 273.435 273.085ZM273.435 261.835 273.435 251.522 283.748 251.522 283.748 261.835 273.435 261.835ZM272.497 250.585 262.184 250.585 262.184 240.272 272.497 240.272 272.497 250.585ZM272.497 251.522 272.497 261.835 262.184 261.835 262.184 251.522 272.497 251.522ZM272.497 262.772 272.497 273.085 262.184 273.085 262.184 262.772 272.497 262.772ZM272.497 274.022 272.497 284.335 262.184 284.335 262.184 274.022 272.497 274.022ZM272.497 285.272 272.497 295.585 262.184 295.585 262.184 285.272 272.497 285.272ZM272.497 296.522 272.497 306.835 262.184 306.835 262.184 296.522 272.497 296.522ZM284.685 296.522 294.998 296.522 294.998 306.835 284.685 306.835 284.685 296.522ZM284.685 295.585 284.685 285.272 294.998 285.272 294.998 295.585 284.685 295.585ZM284.685 284.335 284.685 274.022 294.998 274.022 294.998 284.335 284.685 284.335ZM284.685 273.085 284.685 262.772 294.998 262.772 294.998 273.085 284.685 273.085ZM284.685 261.835 284.685 251.522 294.998 251.522 294.998 261.835 284.685 261.835ZM284.685 250.585 284.685 240.272 294.998 240.272 294.998 250.585 284.685 250.585ZM284.685 239.335 284.685 229.022 294.998 229.022 294.998 239.335 284.685 239.335ZM284.685 228.085 284.685 217.772 294.998 217.772 294.998 228.085 284.685 228.085ZM283.747 228.085 273.434 228.085 273.434 217.772 283.747 217.772 283.747 228.085ZM272.497 228.085 262.184 228.085 262.184 217.772 272.497 217.772 272.497 228.085ZM272.497 229.022 272.497 239.335 262.184 239.335 262.184 229.022 272.497 229.022ZM261.247 239.335 250.934 239.335 250.934 229.022 261.247 229.022 261.247 239.335ZM261.247 240.272 261.247 250.585 250.934 250.585 250.934 240.272 261.247 240.272ZM261.247 251.522 261.247 261.835 250.934 261.835 250.934 251.522 261.247 251.522ZM261.247 262.772 261.247 273.085 250.934 273.085 250.934 262.772 261.247 262.772ZM261.247 274.022 261.247 284.335 250.934 284.335 250.934 274.022 261.247 274.022ZM261.247 285.272 261.247 295.585 250.934 295.585 250.934 285.272 261.247 285.272ZM261.247 296.522 261.247 306.835 250.934 306.835 250.934 296.522 261.247 296.522ZM261.247 307.772 261.247 318.085 250.934 318.085 250.934 307.772 261.247 307.772ZM262.185 307.772 272.498 307.772 272.498 318.085 262.185 318.085 262.185 307.772ZM272.497 319.022 272.497 329.335 262.184 329.335 262.184 319.022 272.497 319.022ZM273.435 319.022 283.748 319.022 283.748 329.335 273.435 329.335 273.435 319.022ZM284.685 319.022 294.998 319.022 294.998 329.335 284.685 329.335 284.685 319.022ZM284.685 318.085 284.685 307.772 294.998 307.772 294.998 318.085 284.685 318.085ZM295.935 307.772 306.248 307.772 306.248 318.085 295.935 318.085 295.935 307.772ZM295.935 306.835 295.935 296.522 306.248 296.522 306.248 306.835 295.935 306.835ZM295.935 295.585 295.935 285.272 306.248 285.272 306.248 295.585 295.935 295.585ZM295.935 284.335 295.935 274.022 306.248 274.022 306.248 284.335 295.935 284.335ZM295.935 273.085 295.935 262.772 306.248 262.772 306.248 273.085 295.935 273.085ZM295.935 261.835 295.935 251.522 306.248 251.522 306.248 261.835 295.935 261.835ZM295.935 250.585 295.935 240.272 306.248 240.272 306.248 250.585 295.935 250.585ZM295.935 239.335 295.935 229.022 306.248 229.022 306.248 239.335 295.935 239.335ZM295.935 228.085 295.935 217.772 306.248 217.772 306.248 228.085 295.935 228.085ZM295.935 216.835 295.935 206.522 306.248 206.522 306.248 216.835 295.935 216.835ZM294.997 216.835 284.684 216.835 284.684 206.522 294.997 206.522 294.997 216.835ZM283.747 216.835 273.434 216.835 273.434 206.522 283.747 206.522 283.747 216.835ZM272.497 216.835 262.184 216.835 262.184 206.522 272.497 206.522 272.497 216.835ZM261.247 216.835 250.934 216.835 250.934 206.522 261.247 206.522 261.247 216.835ZM261.247 217.772 261.247 228.085 250.934 228.085 250.934 217.772 261.247 217.772ZM249.997 228.085 239.684 228.085 239.684 217.772 249.997 217.772 249.997 228.085ZM249.997 229.022 249.997 239.335 239.684 239.335 239.684 229.022 249.997 229.022ZM249.997 240.272 249.997 250.585 239.684 250.585 239.684 240.272 249.997 240.272ZM249.997 251.522 249.997 261.835 239.684 261.835 239.684 251.522 249.997 251.522ZM249.997 262.772 249.997 273.085 239.684 273.085 239.684 262.772 249.997 262.772ZM249.997 274.022 249.997 284.335 239.684 284.335 239.684 274.022 249.997 274.022ZM249.997 285.272 249.997 295.585 239.684 295.585 239.684 285.272 249.997 285.272ZM249.997 296.522 249.997 306.835 239.684 306.835 239.684 296.522 249.997 296.522ZM249.997 307.772 249.997 318.085 239.684 318.085 239.684 307.772 249.997 307.772ZM249.997 319.022 249.997 329.335 239.684 329.335 239.684 319.022 249.997 319.022ZM250.935 319.022 261.248 319.022 261.248 329.335 250.935 329.335 250.935 319.022ZM261.247 330.272 261.247 340.585 250.934 340.585 250.934 330.272 261.247 330.272ZM262.185 330.272 272.498 330.272 272.498 340.585 262.185 340.585 262.185 330.272ZM273.435 330.272 283.748 330.272 283.748 340.585 273.435 340.585 273.435 330.272ZM284.685 330.272 294.998 330.272 294.998 340.585 284.685 340.585 284.685 330.272ZM295.935 330.272 306.248 330.272 306.248 340.585 295.935 340.585 295.935 330.272ZM295.935 329.335 295.935 319.022 306.248 319.022 306.248 329.335 295.935 329.335ZM307.185 319.022 317.498 319.022 317.498 329.335 307.185 329.335 307.185 319.022ZM307.185 318.085 307.185 307.772 317.498 307.772 317.498 318.085 307.185 318.085ZM307.185 306.835 307.185 296.522 317.498 296.522 317.498 306.835 307.185 306.835ZM307.185 295.585 307.185 285.272 317.498 285.272 317.498 295.585 307.185 295.585ZM307.185 284.335 307.185 274.022 317.498 274.022 317.498 284.335 307.185 284.335ZM307.185 273.085 307.185 262.772 317.498 262.772 317.498 273.085 307.185 273.085ZM307.185 261.835 307.185 251.522 317.498 251.522 317.498 261.835 307.185 261.835ZM307.185 250.585 307.185 240.272 317.498 240.272 317.498 250.585 307.185 250.585ZM307.185 239.335 307.185 229.022 317.498 229.022 317.498 239.335 307.185 239.335ZM307.185 228.085 307.185 217.772 317.498 217.772 317.498 228.085 307.185 228.085ZM307.185 216.835 307.185 206.522 317.498 206.522 317.498 216.835 307.185 216.835ZM307.185 205.585 307.185 195.272 317.498 195.272 317.498 205.585 307.185 205.585ZM306.247 205.585 295.934 205.585 295.934 195.272 306.247 195.272 306.247 205.585ZM294.997 205.585 284.684 205.585 284.684 195.272 294.997 195.272 294.997 205.585ZM283.747 205.585 273.434 205.585 273.434 195.272 283.747 195.272 283.747 205.585ZM272.497 205.585 262.184 205.585 262.184 195.272 272.497 195.272 272.497 205.585ZM261.247 205.585 250.934 205.585 250.934 195.272 261.247 195.272 261.247 205.585ZM249.997 205.585 239.684 205.585 239.684 195.272 249.997 195.272 249.997 205.585ZM249.997 206.522 249.997 216.835 239.684 216.835 239.684 206.522 249.997 206.522ZM238.747 216.835 228.434 216.835 228.434 206.522 238.747 206.522 238.747 216.835ZM238.747 217.772 238.747 228.085 228.434 228.085 228.434 217.772 238.747 217.772ZM238.747 229.022 238.747 239.335 228.434 239.335 228.434 229.022 238.747 229.022ZM238.747 240.272 238.747 250.585 228.434 250.585 228.434 240.272 238.747 240.272ZM238.747 251.522 238.747 261.835 228.434 261.835 228.434 251.522 238.747 251.522ZM238.747 262.772 238.747 273.085 228.434 273.085 228.434 262.772 238.747 262.772ZM238.747 274.022 238.747 284.335 228.434 284.335 228.434 274.022 238.747 274.022ZM238.747 285.272 238.747 295.585 228.434 295.585 228.434 285.272 238.747 285.272ZM238.747 296.522 238.747 306.835 228.434 306.835 228.434 296.522 238.747 296.522ZM238.747 307.772 238.747 318.085 228.434 318.085 228.434 307.772 238.747 307.772ZM238.747 319.022 238.747 329.335 228.434 329.335 228.434 319.022 238.747 319.022ZM238.747 330.272 238.747 340.585 228.434 340.585 228.434 330.272 238.747 330.272ZM239.685 330.272 249.998 330.272 249.998 340.585 239.685 340.585 239.685 330.272ZM249.997 341.522 249.997 351.835 239.684 351.835 239.684 341.522 249.997 341.522ZM250.935 341.522 261.248 341.522 261.248 351.835 250.935 351.835 250.935 341.522ZM262.185 341.522 272.498 341.522 272.498 351.835 262.185 351.835 262.185 341.522ZM273.435 341.522 283.748 341.522 283.748 351.835 273.435 351.835 273.435 341.522ZM284.685 341.522 294.998 341.522 294.998 351.835 284.685 351.835 284.685 341.522ZM295.935 341.522 306.248 341.522 306.248 351.835 295.935 351.835 295.935 341.522ZM307.185 341.522 317.498 341.522 317.498 351.835 307.185 351.835 307.185 341.522ZM307.185 340.585 307.185 330.272 317.498 330.272 317.498 340.585 307.185 340.585ZM318.435 330.272 328.748 330.272 328.748 340.585 318.435 340.585 318.435 330.272ZM318.435 329.335 318.435 319.022 328.748 319.022 328.748 329.335 318.435 329.335ZM318.435 318.085 318.435 307.772 328.748 307.772 328.748 318.085 318.435 318.085ZM318.435 306.835 318.435 296.522 328.748 296.522 328.748 306.835 318.435 306.835ZM318.435 295.585 318.435 285.272 328.748 285.272 328.748 295.585 318.435 295.585ZM318.435 284.335 318.435 274.022 328.748 274.022 328.748 284.335 318.435 284.335ZM318.435 273.085 318.435 262.772 328.748 262.772 328.748 273.085 318.435 273.085ZM318.435 261.835 318.435 251.522 328.748 251.522 328.748 261.835 318.435 261.835ZM318.435 250.585 318.435 240.272 328.748 240.272 328.748 250.585 318.435 250.585ZM318.435 239.335 318.435 229.022 328.748 229.022 328.748 239.335 318.435 239.335ZM318.435 228.085 318.435 217.772 328.748 217.772 328.748 228.085 318.435 228.085ZM318.435 216.835 318.435 206.522 328.748 206.522 328.748 216.835 318.435 216.835ZM318.435 205.585 318.435 195.272 328.748 195.272 328.748 205.585 318.435 205.585ZM318.435 194.335 318.435 184.022 328.748 184.022 328.748 194.335 318.435 194.335ZM317.497 194.335 307.184 194.335 307.184 184.022 317.497 184.022 317.497 194.335ZM306.247 194.335 295.934 194.335 295.934 184.022 306.247 184.022 306.247 194.335ZM294.997 194.335 284.684 194.335 284.684 184.022 294.997 184.022 294.997 194.335ZM283.747 194.335 273.434 194.335 273.434 184.022 283.747 184.022 283.747 194.335ZM272.497 194.335 262.184 194.335 262.184 184.022 272.497 184.022 272.497 194.335ZM261.247 194.335 250.934 194.335 250.934 184.022 261.247 184.022 261.247 194.335ZM249.997 194.335 239.684 194.335 239.684 184.022 249.997 184.022 249.997 194.335ZM238.747 194.335 228.434 194.335 228.434 184.022 238.747 184.022 238.747 194.335ZM238.747 195.272 238.747 205.585 228.434 205.585 228.434 195.272 238.747 195.272ZM227.497 205.585 217.184 205.585 217.184 195.272 227.497 195.272 227.497 205.585ZM227.497 206.522 227.497 216.835 217.184 216.835 217.184 206.522 227.497 206.522ZM227.497 217.772 227.497 228.085 217.184 228.085 217.184 217.772 227.497 217.772ZM227.497 229.022 227.497 239.335 217.184 239.335 217.184 229.022 227.497 229.022ZM227.497 240.272 227.497 250.585 217.184 250.585 217.184 240.272 227.497 240.272ZM227.497 251.522 227.497 261.835 217.184 261.835 217.184 251.522 227.497 251.522ZM227.497 262.772 227.497 273.085 217.184 273.085 217.184 262.772 227.497 262.772ZM227.497 274.022 227.497 284.335 217.184 284.335 217.184 274.022 227.497 274.022ZM227.497 285.272 227.497 295.585 217.184 295.585 217.184 285.272 227.497 285.272ZM227.497 296.522 227.497 306.835 217.184 306.835 217.184 296.522 227.497 296.522ZM227.497 307.772 227.497 318.085 217.184 318.085 217.184 307.772 227.497 307.772ZM227.497 319.022 227.497 329.335 217.184 329.335 217.184 319.022 227.497 319.022ZM227.497 330.272 227.497 340.585 217.184 340.585 217.184 330.272 227.497 330.272ZM227.497 341.522 227.497 351.835 217.184 351.835 217.184 341.522 227.497 341.522ZM228.435 341.522 238.748 341.522 238.748 351.835 228.435 351.835 228.435 341.522ZM238.747 352.772 238.747 363.085 228.434 363.085 228.434 352.772 238.747 352.772ZM239.685 352.772 249.998 352.772 249.998 363.085 239.685 363.085 239.685 352.772ZM250.935 352.772 261.248 352.772 261.248 363.085 250.935 363.085 250.935 352.772ZM262.185 352.772 272.498 352.772 272.498 363.085 262.185 363.085 262.185 352.772ZM273.435 352.772 283.748 352.772 283.748 363.085 273.435 363.085 273.435 352.772ZM284.685 352.772 294.998 352.772 294.998 363.085 284.685 363.085 284.685 352.772ZM295.935 352.772 306.248 352.772 306.248 363.085 295.935 363.085 295.935 352.772ZM307.185 352.772 317.498 352.772 317.498 363.085 307.185 363.085 307.185 352.772ZM318.435 352.772 328.748 352.772 328.748 363.085 318.435 363.085 318.435 352.772ZM318.435 351.835 318.435 341.522 328.748 341.522 328.748 351.835 318.435 351.835ZM329.685 341.522 339.998 341.522 339.998 351.835 329.685 351.835 329.685 341.522ZM329.685 340.585 329.685 330.272 339.998 330.272 339.998 340.585 329.685 340.585ZM329.685 329.335 329.685 319.022 339.998 319.022 339.998 329.335 329.685 329.335ZM329.685 318.085 329.685 307.772 339.998 307.772 339.998 318.085 329.685 318.085ZM329.685 306.835 329.685 296.522 339.998 296.522 339.998 306.835 329.685 306.835ZM329.685 295.585 329.685 285.272 339.998 285.272 339.998 295.585 329.685 295.585ZM329.685 284.335 329.685 274.022 339.998 274.022 339.998 284.335 329.685 284.335ZM329.685 273.085 329.685 262.772 339.998 262.772 339.998 273.085 329.685 273.085ZM329.685 261.835 329.685 251.522 339.998 251.522 339.998 261.835 329.685 261.835ZM329.685 250.585 329.685 240.272 339.998 240.272 339.998 250.585 329.685 250.585ZM329.685 239.335 329.685 229.022 339.998 229.022 339.998 239.335 329.685 239.335ZM329.685 228.085 329.685 217.772 339.998 217.772 339.998 228.085 329.685 228.085ZM329.685 216.835 329.685 206.522 339.998 206.522 339.998 216.835 329.685 216.835ZM329.685 205.585 329.685 195.272 339.998 195.272 339.998 205.585 329.685 205.585ZM329.685 194.335 329.685 184.022 339.998 184.022 339.998 194.335 329.685 194.335ZM329.685 183.085 329.685 172.772 339.998 172.772 339.998 183.085 329.685 183.085ZM328.747 183.085 318.434 183.085 318.434 172.772 328.747 172.772 328.747 183.085ZM317.497 183.085 307.184 183.085 307.184 172.772 317.497 172.772 317.497 183.085ZM306.247 183.085 295.934 183.085 295.934 172.772 306.247 172.772 306.247 183.085ZM294.997 183.085 284.684 183.085 284.684 172.772 294.997 172.772 294.997 183.085ZM283.747 183.085 273.434 183.085 273.434 172.772 283.747 172.772 283.747 183.085ZM272.497 183.085 262.184 183.085 262.184 172.772 272.497 172.772 272.497 183.085ZM261.247 183.085 250.934 183.085 250.934 172.772 261.247 172.772 261.247 183.085ZM249.997 183.085 239.684 183.085 239.684 172.772 249.997 172.772 249.997 183.085ZM238.747 183.085 228.434 183.085 228.434 172.772 238.747 172.772 238.747 183.085ZM227.497 183.085 217.184 183.085 217.184 172.772 227.497 172.772 227.497 183.085ZM227.497 184.022 227.497 194.335 217.184 194.335 217.184 184.022 227.497 184.022ZM216.247 194.335 205.934 194.335 205.934 184.022 216.247 184.022 216.247 194.335ZM216.247 195.272 216.247 205.585 205.934 205.585 205.934 195.272 216.247 195.272ZM216.247 206.522 216.247 216.835 205.934 216.835 205.934 206.522 216.247 206.522ZM216.247 217.772 216.247 228.085 205.934 228.085 205.934 217.772 216.247 217.772ZM216.247 229.022 216.247 239.335 205.934 239.335 205.934 229.022 216.247 229.022ZM216.247 240.272 216.247 250.585 205.934 250.585 205.934 240.272 216.247 240.272ZM216.247 251.522 216.247 261.835 205.934 261.835 205.934 251.522 216.247 251.522ZM216.247 262.772 216.247 273.085 205.934 273.085 205.934 262.772 216.247 262.772ZM216.247 274.022 216.247 284.335 205.934 284.335 205.934 274.022 216.247 274.022ZM216.247 285.272 216.247 295.585 205.934 295.585 205.934 285.272 216.247 285.272ZM216.247 296.522 216.247 306.835 205.934 306.835 205.934 296.522 216.247 296.522ZM216.247 307.772 216.247 318.085 205.934 318.085 205.934 307.772 216.247 307.772ZM216.247 319.022 216.247 329.335 205.934 329.335 205.934 319.022 216.247 319.022ZM216.247 330.272 216.247 340.585 205.934 340.585 205.934 330.272 216.247 330.272ZM216.247 341.522 216.247 351.835 205.934 351.835 205.934 341.522 216.247 341.522ZM216.247 352.772 216.247 363.085 205.934 363.085 205.934 352.772 216.247 352.772ZM217.185 352.772 227.498 352.772 227.498 363.085 217.185 363.085 217.185 352.772ZM227.497 364.022 227.497 374.335 217.184 374.335 217.184 364.022 227.497 364.022ZM228.435 364.022 238.748 364.022 238.748 374.335 228.435 374.335 228.435 364.022ZM239.685 364.022 249.998 364.022 249.998 374.335 239.685 374.335 239.685 364.022ZM250.935 364.022 261.248 364.022 261.248 374.335 250.935 374.335 250.935 364.022ZM262.185 364.022 272.498 364.022 272.498 374.335 262.185 374.335 262.185 364.022ZM273.435 364.022 283.748 364.022 283.748 374.335 273.435 374.335 273.435 364.022ZM284.685 364.022 294.998 364.022 294.998 374.335 284.685 374.335 284.685 364.022ZM295.935 364.022 306.248 364.022 306.248 374.335 295.935 374.335 295.935 364.022ZM307.185 364.022 317.498 364.022 317.498 374.335 307.185 374.335 307.185 364.022ZM318.435 364.022 328.748 364.022 328.748 374.335 318.435 374.335 318.435 364.022ZM329.685 364.022 339.998 364.022 339.998 374.335 329.685 374.335 329.685 364.022ZM329.685 363.085 329.685 352.772 339.998 352.772 339.998 363.085 329.685 363.085ZM340.935 352.772 351.248 352.772 351.248 363.085 340.935 363.085 340.935 352.772ZM340.935 351.835 340.935 341.522 351.248 341.522 351.248 351.835 340.935 351.835ZM340.935 340.585 340.935 330.272 351.248 330.272 351.248 340.585 340.935 340.585ZM340.935 329.335 340.935 319.022 351.248 319.022 351.248 329.335 340.935 329.335ZM340.935 318.085 340.935 307.772 351.248 307.772 351.248 318.085 340.935 318.085ZM340.935 306.835 340.935 296.522 351.248 296.522 351.248 306.835 340.935 306.835ZM340.935 295.585 340.935 285.272 351.248 285.272 351.248 295.585 340.935 295.585ZM340.935 284.335 340.935 274.022 351.248 274.022 351.248 284.335 340.935 284.335ZM340.935 273.085 340.935 262.772 351.248 262.772 351.248 273.085 340.935 273.085ZM340.935 261.835 340.935 251.522 351.248 251.522 351.248 261.835 340.935 261.835ZM340.935 250.585 340.935 240.272 351.248 240.272 351.248 250.585 340.935 250.585ZM340.935 239.335 340.935 229.022 351.248 229.022 351.248 239.335 340.935 239.335ZM340.935 228.085 340.935 217.772 351.248 217.772 351.248 228.085 340.935 228.085ZM340.935 216.835 340.935 206.522 351.248 206.522 351.248 216.835 340.935 216.835ZM340.935 205.585 340.935 195.272 351.248 195.272 351.248 205.585 340.935 205.585ZM340.935 194.335 340.935 184.022 351.248 184.022 351.248 194.335 340.935 194.335ZM340.935 183.085 340.935 172.772 351.248 172.772 351.248 183.085 340.935 183.085ZM340.935 171.835 340.935 161.522 351.248 161.522 351.248 171.835 340.935 171.835ZM339.997 171.835 329.684 171.835 329.684 161.522 339.997 161.522 339.997 171.835ZM328.747 171.835 318.434 171.835 318.434 161.522 328.747 161.522 328.747 171.835ZM317.497 171.835 307.184 171.835 307.184 161.522 317.497 161.522 317.497 171.835ZM306.247 171.835 295.934 171.835 295.934 161.522 306.247 161.522 306.247 171.835ZM294.997 171.835 284.684 171.835 284.684 161.522 294.997 161.522 294.997 171.835ZM283.747 171.835 273.434 171.835 273.434 161.522 283.747 161.522 283.747 171.835ZM272.497 171.835 262.184 171.835 262.184 161.522 272.497 161.522 272.497 171.835ZM261.247 171.835 250.934 171.835 250.934 161.522 261.247 161.522 261.247 171.835ZM249.997 171.835 239.684 171.835 239.684 161.522 249.997 161.522 249.997 171.835ZM238.747 171.835 228.434 171.835 228.434 161.522 238.747 161.522 238.747 171.835ZM227.497 171.835 217.184 171.835 217.184 161.522 227.497 161.522 227.497 171.835ZM216.247 171.835 205.934 171.835 205.934 161.522 216.247 161.522 216.247 171.835ZM216.247 172.772 216.247 183.085 205.934 183.085 205.934 172.772 216.247 172.772ZM204.997 183.085 194.684 183.085 194.684 172.772 204.997 172.772 204.997 183.085ZM204.997 184.022 204.997 194.335 194.684 194.335 194.684 184.022 204.997 184.022ZM204.997 195.272 204.997 205.585 194.684 205.585 194.684 195.272 204.997 195.272ZM204.997 206.522 204.997 216.835 194.684 216.835 194.684 206.522 204.997 206.522ZM204.997 217.772 204.997 228.085 194.684 228.085 194.684 217.772 204.997 217.772ZM204.997 229.022 204.997 239.335 194.684 239.335 194.684 229.022 204.997 229.022ZM204.997 240.272 204.997 250.585 194.684 250.585 194.684 240.272 204.997 240.272ZM204.997 251.522 204.997 261.835 194.684 261.835 194.684 251.522 204.997 251.522ZM204.997 262.772 204.997 273.085 194.684 273.085 194.684 262.772 204.997 262.772ZM204.997 274.022 204.997 284.335 194.684 284.335 194.684 274.022 204.997 274.022ZM204.997 285.272 204.997 295.585 194.684 295.585 194.684 285.272 204.997 285.272ZM204.997 296.522 204.997 306.835 194.684 306.835 194.684 296.522 204.997 296.522ZM204.997 307.772 204.997 318.085 194.684 318.085 194.684 307.772 204.997 307.772ZM204.997 319.022 204.997 329.335 194.684 329.335 194.684 319.022 204.997 319.022ZM204.997 330.272 204.997 340.585 194.684 340.585 194.684 330.272 204.997 330.272ZM204.997 341.522 204.997 351.835 194.684 351.835 194.684 341.522 204.997 341.522ZM204.997 352.772 204.997 363.085 194.684 363.085 194.684 352.772 204.997 352.772ZM204.997 364.022 204.997 374.335 194.684 374.335 194.684 364.022 204.997 364.022ZM205.935 364.022 216.248 364.022 216.248 374.335 205.935 374.335 205.935 364.022ZM216.247 375.272 216.247 385.585 205.934 385.585 205.934 375.272 216.247 375.272ZM217.185 375.272 227.498 375.272 227.498 385.585 217.185 385.585 217.185 375.272ZM228.435 375.272 238.748 375.272 238.748 385.585 228.435 385.585 228.435 375.272ZM239.685 375.272 249.998 375.272 249.998 385.585 239.685 385.585 239.685 375.272ZM250.935 375.272 261.248 375.272 261.248 385.585 250.935 385.585 250.935 375.272ZM262.185 375.272 272.498 375.272 272.498 385.585 262.185 385.585 262.185 375.272ZM273.435 375.272 283.748 375.272 283.748 385.585 273.435 385.585 273.435 375.272ZM284.685 375.272 294.998 375.272 294.998 385.585 284.685 385.585 284.685 375.272ZM295.935 375.272 306.248 375.272 306.248 385.585 295.935 385.585 295.935 375.272ZM307.185 375.272 317.498 375.272 317.498 385.585 307.185 385.585 307.185 375.272ZM318.435 375.272 328.748 375.272 328.748 385.585 318.435 385.585 318.435 375.272ZM329.685 375.272 339.998 375.272 339.998 385.585 329.685 385.585 329.685 375.272ZM340.935 375.272 351.248 375.272 351.248 385.585 340.935 385.585 340.935 375.272ZM340.935 374.335 340.935 364.022 351.248 364.022 351.248 374.335 340.935 374.335ZM352.185 364.022 362.498 364.022 362.498 374.335 352.185 374.335 352.185 364.022ZM352.185 363.085 352.185 352.772 362.498 352.772 362.498 363.085 352.185 363.085ZM352.185 351.835 352.185 341.522 362.498 341.522 362.498 351.835 352.185 351.835ZM352.185 340.585 352.185 330.272 362.498 330.272 362.498 340.585 352.185 340.585ZM352.185 329.335 352.185 319.022 362.498 319.022 362.498 329.335 352.185 329.335ZM352.185 318.085 352.185 307.772 362.498 307.772 362.498 318.085 352.185 318.085ZM352.185 306.835 352.185 296.522 362.498 296.522 362.498 306.835 352.185 306.835ZM352.185 295.585 352.185 285.272 362.498 285.272 362.498 295.585 352.185 295.585ZM352.185 284.335 352.185 274.022 362.498 274.022 362.498 284.335 352.185 284.335ZM352.185 273.085 352.185 262.772 362.498 262.772 362.498 273.085 352.185 273.085ZM352.185 261.835 352.185 251.522 362.498 251.522 362.498 261.835 352.185 261.835ZM352.185 250.585 352.185 240.272 362.498 240.272 362.498 250.585 352.185 250.585ZM352.185 239.335 352.185 229.022 362.498 229.022 362.498 239.335 352.185 239.335ZM352.185 228.085 352.185 217.772 362.498 217.772 362.498 228.085 352.185 228.085ZM352.185 216.835 352.185 206.522 362.498 206.522 362.498 216.835 352.185 216.835ZM352.185 205.585 352.185 195.272 362.498 195.272 362.498 205.585 352.185 205.585ZM352.185 194.335 352.185 184.022 362.498 184.022 362.498 194.335 352.185 194.335ZM352.185 183.085 352.185 172.772 362.498 172.772 362.498 183.085 352.185 183.085ZM352.185 171.835 352.185 161.522 362.498 161.522 362.498 171.835 352.185 171.835ZM352.185 160.585 352.185 150.272 362.498 150.272 362.498 160.585 352.185 160.585ZM351.247 160.585 340.934 160.585 340.934 150.272 351.247 150.272 351.247 160.585ZM339.997 160.585 329.684 160.585 329.684 150.272 339.997 150.272 339.997 160.585ZM328.747 160.585 318.434 160.585 318.434 150.272 328.747 150.272 328.747 160.585ZM317.497 160.585 307.184 160.585 307.184 150.272 317.497 150.272 317.497 160.585ZM306.247 160.585 295.934 160.585 295.934 150.272 306.247 150.272 306.247 160.585ZM294.997 160.585 284.684 160.585 284.684 150.272 294.997 150.272 294.997 160.585ZM283.747 160.585 273.434 160.585 273.434 150.272 283.747 150.272 283.747 160.585ZM272.497 160.585 262.184 160.585 262.184 150.272 272.497 150.272 272.497 160.585ZM261.247 160.585 250.934 160.585 250.934 150.272 261.247 150.272 261.247 160.585ZM249.997 160.585 239.684 160.585 239.684 150.272 249.997 150.272 249.997 160.585ZM238.747 160.585 228.434 160.585 228.434 150.272 238.747 150.272 238.747 160.585ZM227.497 160.585 217.184 160.585 217.184 150.272 227.497 150.272 227.497 160.585ZM216.247 160.585 205.934 160.585 205.934 150.272 216.247 150.272 216.247 160.585ZM204.997 160.585 194.684 160.585 194.684 150.272 204.997 150.272 204.997 160.585ZM204.997 161.522 204.997 171.835 194.684 171.835 194.684 161.522 204.997 161.522ZM193.747 171.835 183.298 171.835 183.298 161.522 193.747 161.522 193.747 171.835ZM183.298 172.772 193.747 172.772 193.747 183.085 183.298 183.085 183.298 172.772ZM193.747 184.022 193.747 194.335 183.298 194.335 183.298 184.022 193.747 184.022ZM183.298 195.272 193.747 195.272 193.747 205.585 183.298 205.585 183.298 195.272ZM193.747 206.522 193.747 216.835 183.298 216.835 183.298 206.522 193.747 206.522ZM183.298 217.772 193.747 217.772 193.747 228.085 183.298 228.085 183.298 217.772ZM193.747 229.022 193.747 239.335 183.298 239.335 183.298 229.022 193.747 229.022ZM183.298 240.272 193.747 240.272 193.747 250.585 183.298 250.585 183.298 240.272ZM193.747 251.522 193.747 261.835 183.298 261.835 183.298 251.522 193.747 251.522ZM183.298 262.772 193.747 262.772 193.747 273.085 183.298 273.085 183.298 262.772ZM193.747 274.022 193.747 284.335 183.298 284.335 183.298 274.022 193.747 274.022ZM183.298 285.272 193.747 285.272 193.747 295.585 183.298 295.585 183.298 285.272ZM193.747 296.522 193.747 306.835 183.298 306.835 183.298 296.522 193.747 296.522ZM183.298 307.772 193.747 307.772 193.747 318.085 183.298 318.085 183.298 307.772ZM193.747 319.022 193.747 329.335 183.298 329.335 183.298 319.022 193.747 319.022ZM183.298 330.272 193.747 330.272 193.747 340.585 183.298 340.585 183.298 330.272ZM193.747 341.522 193.747 351.835 183.298 351.835 183.298 341.522 193.747 341.522ZM183.298 352.772 193.747 352.772 193.747 363.085 183.298 363.085 183.298 352.772ZM193.747 364.022 193.747 374.335 183.298 374.335 183.298 364.022 193.747 364.022ZM183.298 375.272 193.747 375.272 193.747 385.585 183.298 385.585 183.298 375.272ZM194.685 375.272 204.998 375.272 204.998 385.585 194.685 385.585 194.685 375.272ZM204.997 386.522 204.997 396.835 194.684 396.835 194.684 386.522 204.997 386.522ZM205.935 386.522 216.248 386.522 216.248 396.835 205.935 396.835 205.935 386.522ZM217.185 386.522 227.498 386.522 227.498 396.835 217.185 396.835 217.185 386.522ZM228.435 386.522 238.748 386.522 238.748 396.835 228.435 396.835 228.435 386.522ZM239.685 386.522 249.998 386.522 249.998 396.835 239.685 396.835 239.685 386.522ZM250.935 386.522 261.248 386.522 261.248 396.835 250.935 396.835 250.935 386.522ZM262.185 386.522 272.498 386.522 272.498 396.835 262.185 396.835 262.185 386.522ZM273.435 386.522 283.748 386.522 283.748 396.835 273.435 396.835 273.435 386.522ZM284.685 386.522 294.998 386.522 294.998 396.835 284.685 396.835 284.685 386.522ZM295.935 386.522 306.248 386.522 306.248 396.835 295.935 396.835 295.935 386.522ZM307.185 386.522 317.498 386.522 317.498 396.835 307.185 396.835 307.185 386.522ZM318.435 386.522 328.748 386.522 328.748 396.835 318.435 396.835 318.435 386.522ZM329.685 386.522 339.998 386.522 339.998 396.835 329.685 396.835 329.685 386.522ZM340.935 386.522 351.248 386.522 351.248 396.835 340.935 396.835 340.935 386.522ZM352.185 386.522 362.498 386.522 362.498 396.835 352.185 396.835 352.185 386.522ZM352.185 385.585 352.185 375.272 362.498 375.272 362.498 385.585 352.185 385.585ZM363.435 375.272 373.611 375.272 373.611 385.585 363.435 385.585 363.435 375.272ZM363.435 374.335 363.435 364.022 373.611 364.022 373.611 374.335 363.435 374.335ZM373.611 363.085 363.435 363.085 363.435 352.772 373.611 352.772 373.611 363.085ZM363.435 351.835 363.435 341.522 373.611 341.522 373.611 351.835 363.435 351.835ZM373.611 340.585 363.435 340.585 363.435 330.272 373.611 330.272 373.611 340.585ZM363.435 329.335 363.435 319.022 373.611 319.022 373.611 329.335 363.435 329.335ZM373.611 318.085 363.435 318.085 363.435 307.772 373.611 307.772 373.611 318.085ZM363.435 306.835 363.435 296.522 373.611 296.522 373.611 306.835 363.435 306.835ZM373.611 295.585 363.435 295.585 363.435 285.272 373.611 285.272 373.611 295.585ZM363.435 284.335 363.435 274.022 373.611 274.022 373.611 284.335 363.435 284.335ZM373.611 273.085 363.435 273.085 363.435 262.772 373.611 262.772 373.611 273.085ZM363.435 261.835 363.435 251.522 373.611 251.522 373.611 261.835 363.435 261.835ZM373.611 250.585 363.435 250.585 363.435 240.272 373.611 240.272 373.611 250.585ZM363.435 239.335 363.435 229.022 373.611 229.022 373.611 239.335 363.435 239.335ZM373.611 228.085 363.435 228.085 363.435 217.772 373.611 217.772 373.611 228.085ZM363.435 216.835 363.435 206.522 373.611 206.522 373.611 216.835 363.435 216.835ZM373.611 205.585 363.435 205.585 363.435 195.272 373.611 195.272 373.611 205.585ZM363.435 194.335 363.435 184.022 373.611 184.022 373.611 194.335 363.435 194.335ZM373.611 183.085 363.435 183.085 363.435 172.772 373.611 172.772 373.611 183.085ZM363.435 171.835 363.435 161.522 373.611 161.522 373.611 171.835 363.435 171.835ZM373.611 160.585 363.435 160.585 363.435 150.272 373.611 150.272 373.611 160.585ZM193.747 150.272 193.747 160.585 183.298 160.585 183.298 150.272 193.747 150.272ZM183.298 386.522 193.747 386.522 193.747 396.835 183.298 396.835 183.298 386.522ZM363.435 396.835 363.435 386.522 373.611 386.522 373.611 396.835 363.435 396.835Z" class="st5" fill="#F2F2F2"/><rect x="164.548" y="94.022" width="224.063" height="22.5" class="MsftOfcThm_Accent4_Fill_v2" fill="#FFC000"/><circle cx="199.704" cy="106.036" r="5.625" class="st4" fill="#FFFFFF"/><circle cx="357.204" cy="106.036" r="5.625" class="st4" fill="#FFFFFF"/></g></g><g><path d="M276.393 394.274 277.884 392.782 267.477 382.375 271.952 377.9 230.167 336.115C228.519 337.762 228.519 340.434 230.167 342.081L265.986 377.9 264.494 379.392 157.58 272.476 137.16 259.016 136.668 259.508 132.727 255.567 131.727 256.567 135.668 260.508 135.171 261.005 148.63 281.425 268.935 401.731 270.427 400.24 283.861 413.675 289.827 407.709 276.393 394.274Z" class="st0" fill="#D2D2D2"/><g><rect x="134.125" y="247.433" width="1.414" height="7.368" class="st3" fill="#505050" transform="matrix(0.7071 -0.7071 0.7071 0.7071 -138.074 168.885)"/><rect x="275.007" y="384.743" width="8.438" height="21.55" class="st2" fill="#737373" transform="matrix(0.7071 -0.7071 0.7071 0.7071 -197.888 313.276)"/><path d="M277.885 385.228 268.935 394.177 148.631 273.871C148.631 273.871 148.652 270.184 151.386 267.451 154.12 264.718 157.581 264.922 157.581 264.922L277.885 385.228Z" class="MsftOfcThm_Accent4_Fill_v2" fill="#FFC000"/><path d="M135.171 253.45 148.631 273.871 157.58 264.922 137.16 251.462Z" class="st2" fill="#737373"/><path d="M271.952 370.346 230.167 328.56C228.519 330.208 228.519 332.879 230.167 334.526L265.986 370.345 264.546 371.785 261.54 368.779 252.479 377.839 258.445 383.805 271.952 370.346Z" class="st2" fill="#737373"/></g></g></svg>